<svg xmlns="http://www.w3.org/2000/svg" width="1254" height="836" viewBox="0 0 1254 836">
<g>
<path d="M 285.07 355.50 L 285.00 500.00 L 259.67 500.00 C245.73,500.00 234.03,499.70 233.67,499.33 C233.30,498.97 233.00,440.24 233.00,368.83 L 233.00 239.00 L 250.50 239.15 L 272.50 263.78 C314.56,310.88 350.18,350.00 350.99,350.00 C351.44,350.00 355.34,346.04 359.65,341.20 C372.00,327.34 418.92,275.38 436.06,256.57 L 451.63 239.50 L 460.32 239.21 L 469.01 238.92 L 468.75 369.21 L 468.50 499.50 L 417.50 499.50 L 417.24 428.17 C417.10,388.80 416.60,356.99 416.13,357.17 C415.65,357.35 400.96,372.35 383.48,390.50 C366.00,408.65 351.18,423.50 350.54,423.50 C349.60,423.50 327.80,400.91 290.72,361.50 ZM 875.00 402.00 L 875.00 500.00 L 849.67 500.00 C835.73,500.00 824.03,499.70 823.67,499.33 C823.30,498.97 823.00,440.89 823.00,370.27 L 823.00 241.87 L 881.75 242.26 C946.70,242.69 944.55,242.49 958.50,249.43 C975.55,257.92 988.49,273.65 995.16,294.00 C997.88,302.30 998.34,305.29 998.76,317.65 C999.14,328.72 998.87,333.50 997.53,339.65 C992.08,364.49 978.03,383.47 957.59,393.56 C943.45,400.54 932.96,401.90 892.75,401.97 ZM 756.82 498.52 C756.24,499.09 698.90,499.56 698.03,499.00 C697.21,498.47 692.62,487.00 672.65,435.50 L 660.24 403.50 L 652.37 403.18 C648.04,403.00 641.17,403.16 637.11,403.53 C631.03,404.08 629.32,404.63 627.42,406.68 C626.03,408.18 622.83,409.74 619.31,410.62 C600.66,415.33 584.86,421.63 568.62,430.84 C562.64,434.23 557.61,437.00 557.45,437.00 C557.28,437.00 557.00,436.31 556.82,435.47 C556.59,434.36 554.60,435.45 549.50,439.50 C532.46,453.04 516.90,470.95 506.04,489.50 C503.15,494.45 500.55,498.73 500.26,499.00 C498.80,500.41 501.61,488.31 504.68,480.00 C511.62,461.14 523.81,442.35 538.75,427.45 C547.33,418.89 562.35,406.88 568.21,403.89 C570.30,402.83 572.00,401.47 572.00,400.88 C572.00,400.29 576.91,388.26 582.91,374.15 C592.50,351.60 616.26,293.50 621.00,281.00 C621.94,278.52 626.21,267.84 630.50,257.25 L 638.29 238.00 L 650.61 238.00 L 654.45 247.25 C656.56,252.34 659.61,259.65 661.22,263.50 C679.81,307.87 702.95,366.28 702.33,367.27 C701.94,367.90 698.30,368.04 692.61,367.65 C683.97,367.06 657.69,368.30 651.71,369.58 C649.19,370.12 648.76,369.78 647.21,366.10 C646.27,363.86 645.27,362.02 644.98,362.01 C644.70,362.00 643.71,364.15 642.78,366.77 C641.21,371.18 640.72,371.64 636.29,372.89 C622.39,376.82 614.76,379.81 615.52,381.04 C615.78,381.45 620.79,381.54 626.66,381.24 C636.30,380.75 637.27,380.86 636.70,382.35 C636.14,383.80 637.03,384.00 643.98,384.00 C650.29,384.00 652.09,383.67 652.82,382.35 C652.95,382.13 653.04,381.93 653.16,381.76 C653.99,380.65 656.55,380.83 683.81,382.80 C685.15,382.90 686.54,383.00 688.00,383.10 C697.08,383.76 712.60,384.32 722.50,384.35 C737.50,384.40 742.00,384.06 749.50,382.29 C754.45,381.12 759.40,379.86 760.50,379.49 C762.15,378.93 762.07,379.18 760.00,380.94 C754.94,385.25 737.53,392.95 727.01,395.55 C721.25,396.97 716.40,398.27 716.25,398.42 C715.96,398.70 717.81,403.24 742.94,463.83 C750.77,482.71 757.02,498.32 756.82,498.52 ZM 875.00 292.85 L 875.00 351.00 L 900.88 351.00 C929.59,351.00 930.94,350.76 937.90,344.47 C943.82,339.12 946.37,332.28 946.29,322.00 C946.19,309.36 942.24,301.58 933.22,296.27 L 928.50 293.50 ZM 592.85 496.25 L 591.76 499.00 L 531.97 499.00 L 533.34 495.75 C534.09,493.96 537.56,485.80 541.05,477.60 L 547.40 462.71 L 554.95 456.69 C565.94,447.93 577.75,440.47 592.50,432.98 C606.42,425.91 620.92,419.59 621.62,420.29 C621.86,420.52 621.10,422.92 619.94,425.61 C618.78,428.30 617.26,432.08 616.56,434.00 C615.08,438.07 594.47,492.17 592.85,496.25 Z" fill="rgb(44,127,253)"/>
<path d="M 269.09 673.29 C262.45,676.23 247.41,676.66 240.18,674.11 C233.43,671.73 228.31,667.61 224.50,661.48 C221.77,657.09 221.50,655.88 221.50,648.01 C221.50,640.32 221.80,638.91 224.15,635.34 C230.60,625.60 242.59,622.01 268.75,622.00 L 283.00 622.00 L 282.99 617.75 C282.98,604.17 275.31,597.00 260.81,597.00 C249.71,597.00 240.93,602.54 239.44,610.48 L 238.78 614.00 L 223.74 614.00 L 224.41 609.81 C226.03,599.73 234.67,590.00 245.23,586.36 C253.36,583.56 269.63,583.79 277.60,586.82 C285.10,589.66 290.17,593.72 293.66,599.68 C298.34,607.67 298.97,612.98 298.98,644.75 L 299.00 674.00 L 284.00 674.00 L 283.96 665.75 C283.92,657.93 283.85,657.66 282.57,660.61 C280.62,665.09 274.40,670.93 269.09,673.29 ZM 963.15 674.64 C951.20,677.45 936.54,675.59 927.73,670.14 C922.08,666.65 915.04,658.35 911.67,651.20 C908.56,644.64 908.50,644.21 908.51,630.00 C908.51,615.68 908.55,615.42 911.75,608.86 C920.17,591.63 935.21,582.99 954.64,584.23 C965.16,584.90 972.64,587.90 979.53,594.20 C988.90,602.76 993.16,612.47 993.38,625.77 L 993.50 633.04 L 959.50 633.41 C940.80,633.62 924.94,633.83 924.25,633.89 C920.33,634.23 925.22,649.49 931.26,655.75 C937.57,662.30 952.12,664.99 962.12,661.46 C967.26,659.64 972.60,654.82 974.53,650.25 L 975.90 647.00 L 983.52 647.00 C990.95,647.00 991.12,647.06 990.48,649.25 C986.99,661.13 975.61,671.71 963.15,674.64 ZM 431.20 674.88 C411.38,679.08 392.76,672.21 383.07,657.12 C377.32,648.15 375.83,641.96 376.18,628.50 C376.49,617.03 376.67,616.16 380.20,608.75 C387.89,592.65 401.72,584.09 420.16,584.02 C436.50,583.96 451.26,592.77 457.59,606.36 C461.12,613.94 461.07,614.00 452.51,614.00 L 445.03 614.00 L 443.47 610.26 C441.47,605.49 438.53,602.36 433.50,599.66 C430.21,597.89 427.81,597.51 420.00,597.51 C408.85,597.51 404.49,599.27 398.58,606.17 C390.28,615.88 388.54,636.54 394.97,649.05 C397.42,653.81 403.42,659.01 408.75,661.01 C422.47,666.14 438.36,661.23 443.17,650.36 L 445.09 646.00 L 452.55 646.00 C457.85,646.00 460.00,646.36 459.99,647.25 C459.97,650.34 454.47,659.93 450.19,664.33 C444.77,669.92 438.71,673.28 431.20,674.88 ZM 808.74 670.75 L 807.66 674.00 L 790.30 674.00 L 774.15 632.43 C765.27,609.56 757.72,589.74 757.38,588.38 L 756.76 585.91 L 764.57 586.21 L 772.37 586.50 L 780.20 608.00 C784.50,619.83 789.76,634.45 791.89,640.50 C794.02,646.55 796.52,653.30 797.46,655.50 L 799.17 659.50 L 800.49 656.00 C801.23,654.08 802.95,649.35 804.33,645.50 C805.70,641.65 809.61,630.85 813.00,621.50 C816.40,612.15 820.61,600.45 822.37,595.50 L 825.56 586.50 L 833.28 586.21 C837.53,586.05 841.00,586.13 841.00,586.40 C841.00,586.66 835.79,600.29 829.42,616.69 C823.05,633.09 817.01,648.75 815.99,651.50 C814.98,654.25 813.17,658.97 811.98,662.00 C810.79,665.03 809.34,668.96 808.74,670.75 ZM 585.00 662.25 L 585.00 674.00 L 574.75 673.96 C560.68,673.90 554.30,671.43 549.33,664.12 C545.72,658.83 545.00,652.30 545.00,624.95 L 545.00 599.00 L 531.00 599.00 L 531.00 586.00 L 545.81 586.00 L 546.52 575.50 L 547.24 565.00 L 560.00 565.00 L 560.00 586.00 L 587.00 586.00 L 587.00 599.00 L 560.00 599.00 L 560.06 624.75 C560.09,641.99 560.51,651.63 561.31,653.91 C563.27,659.50 566.71,661.29 576.48,661.80 ZM 641.38 370.66 C641.02,371.52 641.91,371.56 644.83,370.81 L 648.77 369.81 L 647.14 365.92 C647.16,365.98 647.19,366.04 647.21,366.10 C648.76,369.78 649.19,370.12 651.71,369.58 C657.69,368.30 683.97,367.06 692.61,367.65 C698.30,368.04 701.94,367.90 702.33,367.27 C702.60,366.84 698.29,355.33 691.80,338.81 L 703.50 368.22 L 718.00 367.61 C725.97,367.28 735.28,366.55 738.67,365.99 C748.47,364.39 761.87,360.20 769.97,356.22 C778.28,352.13 790.54,342.86 793.93,338.10 C798.26,332.02 798.02,335.15 793.49,343.92 C785.00,360.35 769.68,372.46 750.25,378.10 C742.30,380.41 724.16,382.99 715.56,383.03 C710.64,383.06 709.86,383.27 711.41,384.17 C703.14,383.94 694.11,383.55 688.00,383.10 C686.54,383.00 685.15,382.90 683.81,382.80 C656.55,380.83 653.99,380.65 653.16,381.76 C653.04,381.93 652.95,382.13 652.82,382.35 C652.09,383.67 650.29,384.00 643.98,384.00 C641.70,384.00 640.07,383.98 638.93,383.90 C640.11,383.93 641.84,383.88 644.33,383.79 C650.80,383.56 652.50,383.19 652.50,382.00 C652.50,380.82 650.86,380.44 644.88,380.21 C638.32,379.96 637.32,380.07 636.81,381.65 C636.61,380.84 634.50,380.84 626.66,381.24 C620.79,381.54 615.78,381.45 615.52,381.04 C614.76,379.81 622.39,376.82 636.29,372.89 C640.45,371.72 641.14,371.24 642.50,367.52 C642.02,368.95 641.57,370.20 641.38,370.66 ZM 521.81 485.71 C511.48,495.77 502.55,504.00 501.97,504.00 C499.46,504.00 516.22,478.56 527.23,465.66 C534.46,457.18 542.25,449.70 552.93,440.98 C555.69,438.72 557.10,436.83 556.87,435.70 C556.80,435.37 556.68,435.16 556.46,435.07 C556.66,435.11 556.78,435.25 556.82,435.47 C557.00,436.31 557.28,437.00 557.45,437.00 C557.61,437.00 562.64,434.23 568.62,430.84 C584.86,421.63 600.66,415.33 619.31,410.62 C622.45,409.83 625.34,408.51 626.91,407.16 C625.98,408.91 626.09,409.11 627.66,408.63 C631.27,407.54 646.57,406.00 653.81,406.00 C659.03,406.00 660.90,405.70 660.77,404.86 L 666.99 420.91 C664.11,413.67 662.12,408.85 661.85,408.55 C660.67,407.23 651.59,409.23 635.89,414.30 L 622.85 418.50 L 620.01 425.50 C618.52,429.20 617.16,432.58 615.59,436.61 C616.08,435.31 616.41,434.41 616.56,434.00 C617.26,432.08 618.78,428.30 619.94,425.61 C621.10,422.92 621.86,420.52 621.62,420.29 C620.92,419.59 606.42,425.91 592.50,432.98 C577.75,440.47 565.94,447.93 554.95,456.69 L 547.40 462.71 L 542.74 473.64 C545.25,467.69 547.00,463.45 547.00,463.28 C547.00,461.91 538.32,469.64 521.81,485.71 ZM 681.00 586.00 L 681.00 674.00 L 666.00 674.00 L 666.00 586.00 ZM 246.74 661.57 C252.31,663.56 262.71,663.32 267.50,661.10 C275.37,657.45 280.84,648.89 282.54,637.56 L 283.27 632.74 L 265.88 633.19 C250.37,633.60 248.03,633.89 244.17,635.88 C239.37,638.37 237.00,642.54 237.00,648.52 C237.00,654.98 240.16,659.22 246.74,661.57 ZM 923.54 618.75 L 922.84 622.00 L 978.00 622.00 L 978.00 619.63 C978.00,618.32 977.32,615.31 976.48,612.94 C972.64,602.07 964.72,597.02 951.50,597.02 C945.20,597.02 942.43,597.52 938.46,599.37 C931.26,602.72 925.34,610.41 923.54,618.75 ZM 677.45 565.58 C672.52,567.64 670.15,567.25 666.27,563.71 C663.21,560.93 662.42,556.01 664.42,552.15 C666.58,547.98 669.39,546.67 674.86,547.29 C680.51,547.92 683.00,550.64 683.00,556.18 C683.00,561.41 681.55,563.87 677.45,565.58 ZM 632.14 404.17 C633.39,403.91 634.99,403.72 637.11,403.53 C641.17,403.16 648.04,403.00 652.37,403.18 L 660.24 403.50 L 660.68 404.63 C660.10,403.80 656.34,403.51 646.91,403.53 C639.59,403.55 635.05,403.69 632.14,404.17 ZM 733.45 384.27 C740.46,383.58 747.89,382.52 753.77,381.26 C752.41,381.59 750.96,381.94 749.50,382.29 C744.23,383.53 740.44,384.07 733.45,384.27 ZM 697.94 498.92 C697.71,498.90 697.58,498.88 697.56,498.86 C697.27,498.55 693.65,489.45 687.04,472.48 C694.73,492.11 697.24,498.11 697.94,498.92 ZM 532.18 498.50 L 532.14 498.50 L 536.78 487.64 C535.08,491.63 533.77,494.73 533.34,495.75 ZM 644.95 362.02 C644.96,362.01 644.97,362.01 644.98,362.01 C645.20,362.01 645.82,363.06 646.52,364.53 C645.85,363.14 645.23,362.12 644.95,362.02 ZM 756.81 498.52 C756.81,498.52 756.81,498.52 756.81,498.53 C756.80,498.54 756.75,498.55 756.67,498.56 C756.74,498.55 756.79,498.54 756.81,498.52 Z" fill="rgb(233,23,43)"/>
<path d="M 0.00 418.00 L 0.00 0.00 L 627.00 0.00 L 1254.00 0.00 L 1254.00 418.00 L 1254.00 836.00 L 627.00 836.00 L 0.00 836.00 L 0.00 418.00 ZM 269.09 673.29 C274.40,670.93 280.62,665.09 282.57,660.61 C283.85,657.66 283.92,657.93 283.96,665.75 L 284.00 674.00 L 291.50 674.00 L 299.00 674.00 L 298.98 644.75 C298.97,612.98 298.34,607.67 293.66,599.68 C290.17,593.72 285.10,589.66 277.60,586.82 C269.63,583.79 253.36,583.56 245.23,586.36 C234.67,590.00 226.03,599.73 224.41,609.81 L 223.74 614.00 L 231.26 614.00 L 238.78 614.00 L 239.44 610.48 C240.93,602.54 249.71,597.00 260.81,597.00 C275.31,597.00 282.98,604.17 282.99,617.75 L 283.00 622.00 L 268.75 622.00 C242.59,622.01 230.60,625.60 224.15,635.34 C221.80,638.91 221.50,640.32 221.50,648.01 C221.50,655.88 221.77,657.09 224.50,661.48 C228.31,667.61 233.43,671.73 240.18,674.11 C247.41,676.66 262.45,676.23 269.09,673.29 ZM 431.20 674.88 C438.71,673.28 444.77,669.92 450.19,664.33 C454.47,659.93 459.97,650.34 459.99,647.25 C460.00,646.36 457.85,646.00 452.55,646.00 L 445.09 646.00 L 443.17 650.36 C438.36,661.23 422.47,666.14 408.75,661.01 C403.42,659.01 397.42,653.81 394.97,649.05 C388.54,636.54 390.28,615.88 398.58,606.17 C404.49,599.27 408.85,597.51 420.00,597.51 C427.81,597.51 430.21,597.89 433.50,599.66 C438.53,602.36 441.47,605.49 443.47,610.26 L 445.03 614.00 L 452.51 614.00 C461.07,614.00 461.12,613.94 457.59,606.36 C451.26,592.77 436.50,583.96 420.16,584.02 C401.72,584.09 387.89,592.65 380.20,608.75 C376.67,616.16 376.49,617.03 376.18,628.50 C375.83,641.96 377.32,648.15 383.07,657.12 C392.76,672.21 411.38,679.08 431.20,674.88 ZM 963.15 674.64 C975.61,671.71 986.99,661.13 990.48,649.25 C991.12,647.06 990.95,647.00 983.52,647.00 L 975.90 647.00 L 974.53 650.25 C972.60,654.82 967.26,659.64 962.12,661.46 C952.12,664.99 937.57,662.30 931.26,655.75 C925.22,649.49 920.33,634.23 924.25,633.89 C924.94,633.83 940.80,633.62 959.50,633.41 L 993.50 633.04 L 993.38 625.77 C993.16,612.47 988.90,602.76 979.53,594.20 C972.64,587.90 965.16,584.90 954.64,584.23 C935.21,582.99 920.17,591.63 911.75,608.86 C908.55,615.42 908.51,615.68 908.51,630.00 C908.50,644.21 908.56,644.64 911.67,651.20 C915.04,658.35 922.08,666.65 927.73,670.14 C936.54,675.59 951.20,677.45 963.15,674.64 ZM 585.00 668.13 L 585.00 662.25 L 576.48 661.80 C566.71,661.29 563.27,659.50 561.31,653.91 C560.51,651.63 560.09,641.99 560.06,624.75 L 560.00 599.00 L 573.50 599.00 L 587.00 599.00 L 587.00 592.50 L 587.00 586.00 L 573.50 586.00 L 560.00 586.00 L 560.00 575.50 L 560.00 565.00 L 553.62 565.00 L 547.24 565.00 L 546.52 575.50 L 545.81 586.00 L 538.40 586.00 L 531.00 586.00 L 531.00 592.50 L 531.00 599.00 L 538.00 599.00 L 545.00 599.00 L 545.00 624.95 C545.00,652.30 545.72,658.83 549.33,664.12 C554.30,671.43 560.68,673.90 574.75,673.96 L 585.00 674.00 L 585.00 668.13 ZM 681.00 630.00 L 681.00 586.00 L 673.50 586.00 L 666.00 586.00 L 666.00 630.00 L 666.00 674.00 L 673.50 674.00 L 681.00 674.00 L 681.00 630.00 ZM 808.74 670.75 C809.34,668.96 810.79,665.03 811.98,662.00 C813.17,658.97 814.98,654.25 815.99,651.50 C817.01,648.75 823.05,633.09 829.42,616.69 C835.79,600.29 841.00,586.66 841.00,586.40 C841.00,586.13 837.53,586.05 833.28,586.21 L 825.56 586.50 L 822.37 595.50 C820.61,600.45 816.40,612.15 813.00,621.50 C809.61,630.85 805.70,641.65 804.33,645.50 C802.95,649.35 801.23,654.08 800.49,656.00 L 799.17 659.50 L 797.46 655.50 C796.52,653.30 794.02,646.55 791.89,640.50 C789.76,634.45 784.50,619.83 780.20,608.00 L 772.37 586.50 L 764.57 586.21 L 756.76 585.91 L 757.38 588.38 C757.72,589.74 765.27,609.56 774.15,632.43 L 790.30 674.00 L 798.98 674.00 L 807.66 674.00 L 808.74 670.75 ZM 677.45 565.58 C681.55,563.87 683.00,561.41 683.00,556.18 C683.00,550.64 680.51,547.92 674.86,547.29 C669.39,546.67 666.58,547.98 664.42,552.15 C662.42,556.01 663.21,560.93 666.27,563.71 C670.15,567.25 672.52,567.64 677.45,565.58 ZM 521.81 485.71 C538.32,469.64 547.00,461.91 547.00,463.28 C547.00,463.51 543.66,471.53 539.57,481.10 L 532.14 498.50 L 561.72 498.77 C577.99,498.91 591.48,498.85 591.70,498.63 C591.92,498.42 596.51,486.60 601.91,472.37 C612.61,444.15 615.71,436.12 620.01,425.50 L 622.85 418.50 L 635.89 414.30 C651.59,409.23 660.67,407.23 661.85,408.55 C662.31,409.07 667.99,423.23 674.46,440.00 C689.01,477.72 697.12,498.39 697.56,498.86 C697.99,499.34 756.33,499.01 756.81,498.53 C757.01,498.32 750.77,482.71 742.94,463.83 C717.81,403.24 715.96,398.70 716.25,398.42 C716.40,398.27 721.25,396.97 727.01,395.55 C737.53,392.95 754.94,385.25 760.00,380.94 C762.07,379.18 762.15,378.93 760.50,379.49 C748.41,383.57 715.75,386.69 711.41,384.17 C709.86,383.27 710.63,383.06 715.56,383.03 C724.16,382.99 742.30,380.41 750.25,378.10 C769.68,372.46 785.00,360.35 793.49,343.92 C798.02,335.15 798.26,332.02 793.93,338.10 C790.54,342.86 778.28,352.13 769.97,356.22 C761.87,360.20 748.47,364.39 738.67,365.99 C735.28,366.55 725.97,367.28 718.00,367.61 L 703.50 368.22 L 691.03 336.86 C684.17,319.61 676.69,301.00 674.42,295.50 C672.15,290.00 668.16,280.33 665.56,274.00 C662.96,267.67 658.51,256.99 655.67,250.25 L 650.50 238.00 L 644.39 238.00 L 638.29 238.00 L 630.50 257.25 C626.21,267.84 621.94,278.52 621.00,281.00 C616.26,293.50 592.50,351.60 582.91,374.15 C576.91,388.26 572.00,400.29 572.00,400.88 C572.00,401.47 570.30,402.83 568.21,403.89 C562.35,406.88 547.33,418.89 538.75,427.45 C523.81,442.35 511.62,461.14 504.68,480.00 C501.61,488.31 498.80,500.41 500.26,499.00 C500.55,498.73 503.15,494.45 506.04,489.50 C516.90,470.95 532.46,453.04 549.50,439.50 C555.20,434.97 556.57,434.27 556.87,435.70 C557.10,436.83 555.69,438.72 552.93,440.98 C542.25,449.70 534.46,457.18 527.23,465.66 C516.22,478.56 499.46,504.00 501.97,504.00 C502.55,504.00 511.48,495.77 521.81,485.71 ZM 285.04 427.75 L 285.07 355.50 L 290.72 361.50 C327.80,400.91 349.60,423.50 350.54,423.50 C351.18,423.50 366.00,408.65 383.48,390.50 C400.96,372.35 415.65,357.35 416.13,357.17 C416.60,356.99 417.10,388.80 417.24,428.17 L 417.50 499.50 L 443.00 499.50 L 468.50 499.50 L 468.75 369.21 L 469.01 238.92 L 460.32 239.21 L 451.63 239.50 L 436.06 256.57 C418.92,275.38 372.00,327.34 359.65,341.20 C355.34,346.04 351.44,350.00 350.99,350.00 C350.18,350.00 314.56,310.88 272.50,263.78 L 250.50 239.15 L 241.75 239.07 L 233.00 239.00 L 233.00 368.83 C233.00,440.24 233.30,498.97 233.67,499.33 C234.03,499.70 245.73,500.00 259.67,500.00 L 285.00 500.00 L 285.04 427.75 ZM 875.00 451.00 L 875.00 402.00 L 892.75 401.97 C932.96,401.90 943.45,400.54 957.59,393.56 C978.03,383.47 992.08,364.49 997.53,339.65 C998.87,333.50 999.14,328.72 998.76,317.65 C998.34,305.29 997.88,302.30 995.16,294.00 C988.49,273.65 975.55,257.92 958.50,249.43 C944.55,242.49 946.70,242.69 881.75,242.26 L 823.00 241.87 L 823.00 370.27 C823.00,440.89 823.30,498.97 823.67,499.33 C824.03,499.70 835.73,500.00 849.67,500.00 L 875.00 500.00 L 875.00 451.00 ZM 246.74 661.57 C240.16,659.22 237.00,654.98 237.00,648.52 C237.00,642.54 239.37,638.37 244.17,635.88 C248.03,633.89 250.37,633.60 265.88,633.19 L 283.27 632.74 L 282.54 637.56 C280.84,648.89 275.37,657.45 267.50,661.10 C262.71,663.32 252.31,663.56 246.74,661.57 ZM 923.54 618.75 C925.34,610.41 931.26,602.72 938.46,599.37 C942.43,597.52 945.20,597.02 951.50,597.02 C964.72,597.02 972.64,602.07 976.48,612.94 C977.32,615.31 978.00,618.32 978.00,619.63 L 978.00 622.00 L 950.42 622.00 L 922.84 622.00 L 923.54 618.75 ZM 626.94 407.11 C628.53,404.14 631.73,403.57 646.91,403.53 C656.77,403.51 660.43,403.83 660.74,404.75 C661.06,405.68 659.25,406.00 653.81,406.00 C646.57,406.00 631.27,407.54 627.66,408.63 C626.08,409.11 625.98,408.91 626.94,407.11 ZM 636.71 382.00 C637.21,380.09 637.87,379.94 644.88,380.21 C650.86,380.44 652.50,380.82 652.50,382.00 C652.50,383.19 650.80,383.56 644.33,383.79 C636.49,384.07 636.19,384.00 636.71,382.00 ZM 641.38 370.66 C641.65,370.02 642.42,367.81 643.09,365.75 C643.77,363.69 644.58,362.00 644.91,362.01 C645.23,362.02 646.24,363.77 647.14,365.92 L 648.77 369.81 L 644.83 370.81 C641.91,371.56 641.02,371.52 641.38,370.66 ZM 875.00 321.93 L 875.00 292.85 L 901.75 293.18 L 928.50 293.50 L 933.22 296.27 C942.24,301.58 946.19,309.36 946.29,322.00 C946.37,332.28 943.82,339.12 937.90,344.47 C930.94,350.76 929.59,351.00 900.88,351.00 L 875.00 351.00 L 875.00 321.93 Z" fill="rgb(254,254,254)"/>
</g>
</svg>